Coordinates
version=1
nRows=5
nColumns=40
inDegrees=yes

Units are S.I. units (second, meters, Newtons, ...)
If the header above contains a line with 'inDegrees', this indicates whether rotational values are in degrees (yes) or radians (no).

endheader
time	pelvis_tilt	pelvis_list	pelvis_rotation	pelvis_tx	pelvis_ty	pelvis_tz	hip_flexion_r	hip_adduction_r	hip_rotation_r	knee_angle_r	knee_angle_r_beta	ankle_angle_r	subtalar_angle_r	mtp_angle_r	hip_flexion_l	hip_adduction_l	hip_rotation_l	knee_angle_l	knee_angle_l_beta	ankle_angle_l	subtalar_angle_l	mtp_angle_l	lumbar_extension	lumbar_bending	lumbar_rotation	arm_flex_r	arm_add_r	arm_rot_r	elbow_flex_r	pro_sup_r	wrist_flex_r	wrist_dev_r	arm_flex_l	arm_add_l	arm_rot_l	elbow_flex_l	pro_sup_l	wrist_flex_l	wrist_dev_l
      0.33000000	     -8.98485970	      3.57805391	     -5.14663762	      0.33397029	      0.90433444	     -0.28510245	     36.66123103	     -3.05471526	     -8.85877710	     19.67041729	      0.34331355	      2.29790726	      0.00000000	      0.00000000	     -1.08291382	      8.46842301	     -1.62874107	      3.47475013	      0.06064583	      6.32710137	      0.00000000	      0.00000000	     -5.18409601	     -3.28991600	     -6.90421364	     -9.67395368	    -10.88220358	    -11.47217466	     40.99557773	     87.28902358	     26.66570756	     31.06168376	      4.65829848	    -22.37339856	     -1.28411073	     58.64456591	     89.31941350	     14.19577577	     26.61867764
      0.34000000	     -9.17725758	      3.61193850	     -4.44851087	      0.35279646	      0.90108199	     -0.28516678	     36.99711526	     -2.79958314	     -8.68031348	     15.76503172	      0.27515171	      1.35403497	      0.00000000	      0.00000000	     -2.38714831	      8.59958994	     -1.26944076	      3.13898930	      0.05478570	      6.69926153	      0.00000000	      0.00000000	     -4.78251258	     -3.30226686	     -8.05650436	    -10.76774628	    -10.85387573	    -12.63969938	     40.38068817	     87.38722050	     26.10879792	     31.33741352	      5.72668276	    -22.96637205	     -2.05965815	     60.04003608	     89.30558936	     19.35325109	     28.67822122
      0.35000000	     -9.37627291	      3.58749523	     -3.55249306	      0.37180490	      0.89764271	     -0.28546444	     37.23544454	     -2.66511167	     -8.30698726	     12.24277075	      0.21367666	      0.37215963	      0.00000000	      0.00000000	     -3.58330524	      8.59867783	     -0.72221663	      3.07396683	      0.05365084	      7.15140671	      0.00000000	      0.00000000	     -4.34061119	     -3.24290820	     -9.38951692	    -11.81373600	    -10.96458175	    -13.38173031	     39.83842429	     87.39142654	     25.70431652	     31.48799376	      6.76942756	    -23.72888242	     -1.92388210	     61.24874198	     89.30388712	     19.82613692	     29.04059765
      0.36000000	     -9.57270705	      3.59297111	     -2.61624060	      0.39071281	      0.89404131	     -0.28572772	     37.46874934	     -2.67103500	     -7.71462013	      9.26721515	      0.16174342	     -0.59407811	      0.00000000	      0.00000000	     -4.65651115	      8.55522741	     -0.13830393	      3.25667434	      0.05683969	      7.55474956	      0.00000000	      0.00000000	     -3.93123382	     -3.22019903	    -10.62771332	    -12.84455523	    -11.05619141	    -14.19642427	     39.49345475	     87.42902578	     25.20400499	     31.64800975	      7.91384661	    -24.49722013	     -1.64818822	     62.34741338	     89.29781948	     20.54131219	     29.39635374
      0.37000000	     -9.84844558	      3.68808169	     -1.70924368	      0.40981876	      0.89024363	     -0.28590473	     37.83258311	     -2.83821240	     -6.74960516	      7.05323562	      0.12310218	     -1.21457061	      0.00000000	      0.00000000	     -5.52424982	      8.54925497	      0.29055551	      3.70744831	      0.06470718	      7.79362167	      0.00000000	      0.00000000	     -3.37509942	     -3.30854715	    -11.84596188	    -13.82671585	    -11.26030389	    -14.58597331	     39.18954936	     87.31341631	     24.98754038	     31.62882621	      8.89545049	    -25.24215090	     -1.38030295	     63.39978675	     89.29126091	     20.76976655	     29.34497055
